<svg height="512" width="512" fill="#ffffff" xmlns="http://www.w3.org/2000/svg"><path d="M507.606 90.644l-25-25A15 15 0 00472 61.25h-19.135C450.79 27.266 422.497.25 388 .25H124c-34.497 0-62.79 27.016-64.865 61H40a14.996 14.996 0 00-10.606 4.394l-25 25A14.996 14.996 0 000 101.25v75c0 8.284 6.716 15 15 15s15-6.716 15-15v-68.787L46.213 91.25H59v180.888c62.106 12.296 333.635 11.951 394 0V91.25h12.787L482 107.463v68.787c0 8.284 6.716 15 15 15s15-6.716 15-15v-75c0-3.978-1.58-7.793-4.394-10.606zM76 480.66v6.09c0 13.79 11.21 25 25 25h47c13.79 0 25-11.21 25-25v-5.5c-93.793-.199-90.047.449-97-.59zM339 481.25v5.5c0 13.79 11.21 25 25 25h47c13.79 0 25-11.21 25-25v-6.09c-6.952 1.039-3.198.391-97 .59zM59 302.602v55.478l94.562 16.391a15.003 15.003 0 0111.729 10.219l21.243 66.561h138.935l21.243-66.561a15 15 0 0111.729-10.219L453 358.08v-55.478c-72.249 11.534-321.714 11.539-394 0zm242 73.648h-90c-8.284 0-15-6.716-15-15s6.716-15 15-15h90c8.284 0 15 6.716 15 15s-6.716 15-15 15z"/><path d="M356.958 451.25H428c13.785 0 25-11.215 25-25v-37.723l-80.476 13.949zM155.042 451.25l-15.566-48.774L59 388.527v37.723c0 13.785 11.215 25 25 25z"/></svg>